<svg xmlns="http://www.w3.org/2000/svg" viewBox="0 0 56 56"><defs><style>.cls-1{fill:#1d2031;opacity:0;}.cls-2,.cls-3{fill:#fff;}.cls-3{opacity:0.8;}</style></defs><title>Blizzard Icon Group</title><g id="Camada_2" data-name="Camada 2"><g id="Camada_1-2" data-name="Camada 1"><g id="Blizzard_Icon_Group" data-name="Blizzard Icon Group"><rect id="Weather_Icon_Frame" data-name="Weather Icon Frame" class="cls-1" width="56" height="56"/><g id="Blizzard_Icon" data-name="Blizzard Icon"><polygon class="cls-2" points="37.71 31.62 35.95 30.67 36.9 28.91 35.14 27.95 34.19 29.71 29.98 27.44 34.04 24.9 35.1 26.59 36.8 25.53 35.73 23.84 37.43 22.77 36.37 21.08 34.67 22.14 33.61 20.45 31.92 21.51 32.98 23.2 29 25.69 29 21 31 21 31 19 29 19 29 17 27 17 27 19 25 19 25 21 27 21 27 25.82 22.76 23.53 23.71 21.77 21.95 20.82 21 22.57 19.24 21.62 18.29 23.38 20.05 24.33 19.1 26.09 20.86 27.05 21.81 25.29 26.02 27.56 21.96 30.1 20.9 28.41 19.2 29.47 20.27 31.16 18.57 32.23 19.63 33.92 21.33 32.86 22.39 34.55 24.08 33.49 23.02 31.8 27 29.31 27 34 25 34 25 36 27 36 27 38 29 38 29 36 31 36 31 34 29 34 29 29.18 33.24 31.47 32.29 33.23 34.05 34.18 35 32.42 36.76 33.38 37.71 31.62"/><path class="cls-3" d="M37,15l-.6,0A10.49,10.49,0,0,0,16,18.5c0,.2,0,.39,0,.59A6,6,0,0,0,16.74,31,1,1,0,0,0,17,29.68h0a1,1,0,0,1,.31-1.37l.79-.49-.82-.44a1,1,0,0,1-.4-1.36h0a1,1,0,0,0-.4-1.36,1,1,0,0,1-.4-1.35l.47-.88.95-1.76.48-.88a1,1,0,0,1,1.35-.4l.88.47h0l.48-.88a1,1,0,0,1,1.35-.4l.88.48.1.05V18a1,1,0,0,1,1-1h0a1,1,0,0,0,1-1h0a1,1,0,0,1,1-1h4a1,1,0,0,1,1,1h0a1,1,0,0,0,1,1h0a1,1,0,0,1,1,1v.47l.4-.25a1,1,0,0,1,1.38.32l.53.84h0l.84-.53a1,1,0,0,1,1.38.32l.53.85,1.07,1.69.53.85a1,1,0,0,1-.32,1.38h0A1,1,0,0,0,39,25.32h0a1,1,0,0,1-.31,1.37l-.79.49.82.44a1,1,0,0,1,.4,1.36h0a1,1,0,0,0,.4,1.36.83.83,0,0,1,.21.17A8,8,0,0,0,37,15Z"/><polygon class="cls-2" points="14.37 40.1 15.37 38.37 17.1 39.37 18.1 37.63 16.37 36.63 17.37 34.9 15.63 33.9 14.63 35.63 12.9 34.63 11.9 36.37 13.63 37.37 12.63 39.1 14.37 40.1"/><polygon class="cls-2" points="13.37 48.1 14.37 46.37 16.1 47.37 17.1 45.63 15.37 44.63 16.37 42.9 14.63 41.9 13.63 43.63 11.9 42.63 10.9 44.37 12.63 45.37 11.63 47.1 13.37 48.1"/><polygon class="cls-2" points="22.37 47.1 23.37 45.37 25.1 46.37 26.1 44.63 24.37 43.63 25.37 41.9 23.63 40.9 22.63 42.63 20.9 41.63 19.9 43.37 21.63 44.37 20.63 46.1 22.37 47.1"/><polygon class="cls-2" points="31.37 45.1 32.37 43.37 34.1 44.37 35.1 42.63 33.37 41.63 34.37 39.9 32.63 38.9 31.63 40.63 29.9 39.63 28.9 41.37 30.63 42.37 29.63 44.1 31.37 45.1"/><polygon class="cls-2" points="40.37 47.1 41.37 45.37 43.1 46.37 44.1 44.63 42.37 43.63 43.37 41.9 41.63 40.9 40.63 42.63 38.9 41.63 37.9 43.37 39.63 44.37 38.63 46.1 40.37 47.1"/><polygon class="cls-2" points="41.37 39.1 42.37 37.37 44.1 38.37 45.1 36.63 43.37 35.63 44.37 33.9 42.63 32.9 41.63 34.63 39.9 33.63 38.9 35.37 40.63 36.37 39.63 38.1 41.37 39.1"/></g></g></g></g></svg>