<svg xmlns="http://www.w3.org/2000/svg" viewBox="0 0 56 56"><defs><style>.cls-1{fill:#1d2031;opacity:0;}.cls-2{opacity:0.5;}.cls-3{fill:#fff;}</style></defs><title>Breezy Icon Group</title><g id="Camada_2" data-name="Camada 2"><g id="Camada_1-2" data-name="Camada 1"><g id="Breezy_Icon_Group" data-name="Breezy Icon Group"><rect id="Weather_Icon_Frame" data-name="Weather Icon Frame" class="cls-1" width="56" height="56"/><g id="Breezy_Icon" data-name="Breezy Icon" class="cls-2"><path class="cls-3" d="M42.92,26.13A6.56,6.56,0,0,0,39,25a9.87,9.87,0,0,0-2.76.32,21.19,21.19,0,0,1-6,.66c-2.58-.08-5.27-.46-8-.8A13,13,0,0,0,11,29.45l1.4,1.19A11.33,11.33,0,0,1,22,27c2.79.35,5.54.73,8.17.81a22.64,22.64,0,0,0,6.56-.72A9.05,9.05,0,0,1,39,26.86a4.78,4.78,0,0,1,2.83.77,3.62,3.62,0,0,1,1.32,3,4.79,4.79,0,0,1-1.87,3.83,4.1,4.1,0,0,1-2.36.67c-.42,0-4.06-.13-4.11-3.5l-1.83,0c.07,4.21,3.91,5.32,5.93,5.32a6,6,0,0,0,3.4-1A6.74,6.74,0,0,0,45,30.68,5.43,5.43,0,0,0,42.92,26.13Z"/><path class="cls-3" d="M21.24,22c2.56.23,5.23.86,7.79,1.07l.3,0a10.18,10.18,0,0,0,5.07-.44,4.11,4.11,0,0,0,2.53-4.62,4.9,4.9,0,0,0-4.36-4A4.57,4.57,0,0,0,29,15.29l1.31,1.32a2.69,2.69,0,0,1,2.11-.74,3,3,0,0,1,2.72,2.51A2.29,2.29,0,0,1,33.65,21a8.59,8.59,0,0,1-4.16.28l-.3,0C26.63,21,24,20.4,21.42,20.17,14.61,19.5,11.15,23.56,11,23.72L12.34,25S15.33,21.44,21.24,22Z"/><path class="cls-3" d="M22.81,30A14.75,14.75,0,0,0,13,33.54l1.32,1.28a12.92,12.92,0,0,1,8.49-3c1,0,4.33.15,5.74,2.08a3.5,3.5,0,0,1-.2,4.12,3.67,3.67,0,0,1-3.87,1,2.35,2.35,0,0,1-1.54-1.83,2.58,2.58,0,0,1,.36-2l-1.65-.91a4.17,4.17,0,0,0-.51,3.35,4.13,4.13,0,0,0,2.77,3.1,5.8,5.8,0,0,0,1.78.28,5.35,5.35,0,0,0,4.1-1.84,5.21,5.21,0,0,0,.28-6.31C28.19,30.28,24.37,30,22.81,30Z"/></g></g></g></g></svg>