<svg xmlns="http://www.w3.org/2000/svg" viewBox="0 0 56 56"><defs><style>.cls-1{fill:#1d2031;opacity:0;}.cls-2{fill:#fff;}</style></defs><title>Clear Night Icon Group</title><g id="Camada_2" data-name="Camada 2"><g id="Camada_1-2" data-name="Camada 1"><g id="Clear_Night_Icon_Group" data-name="Clear Night Icon Group"><rect id="Weather_Icon_Frame" data-name="Weather Icon Frame" class="cls-1" width="56" height="56"/><g id="Clear_Night_Icon_Group-2" data-name="Clear Night Icon Group"><path class="cls-2" d="M35,36A13,13,0,0,1,24.72,15.06,14,14,0,1,0,38.37,35.54,12.87,12.87,0,0,1,35,36Z"/><path class="cls-2" d="M32.5,16l-.59-1.38a1,1,0,0,0-.53-.53L30,13.5l1.38-.59a1,1,0,0,0,.53-.53L32.5,11l.59,1.38a1,1,0,0,0,.53.53L35,13.5l-1.38.59a1,1,0,0,0-.53.53Z"/><path class="cls-2" d="M41.5,23.5l-1.18-2.76a2,2,0,0,0-1.06-1.06L36.5,18.5l2.76-1.18a2,2,0,0,0,1.06-1.06L41.5,13.5l1.18,2.76a2,2,0,0,0,1.06,1.06L46.5,18.5l-2.76,1.18a2,2,0,0,0-1.06,1.06Z"/></g></g></g></g></svg>