<svg xmlns="http://www.w3.org/2000/svg" viewBox="0 0 56 56"><defs><style>.cls-1{fill:#1d2031;opacity:0;}.cls-2{fill:#fff;opacity:0.8;}.cls-3{fill:#84c6f7;}</style></defs><title>Drizzle Icon Group</title><g id="Camada_2" data-name="Camada 2"><g id="Camada_1-2" data-name="Camada 1"><g id="Drizzle_Icon_Group" data-name="Drizzle Icon Group"><rect id="Weather_Icon_Frame" data-name="Weather Icon Frame" class="cls-1" width="56" height="56"/><g id="Drizzle_Icon" data-name="Drizzle Icon"><path class="cls-2" d="M36,17a8.85,8.85,0,0,0-.89.05A9.75,9.75,0,0,0,16,19.75a9.53,9.53,0,0,0,.1,1.32A6,6,0,0,0,17,33H36a8,8,0,0,0,0-16Z"/><rect class="cls-3" x="12.9" y="36.35" width="3.37" height="1.75" transform="translate(-25.12 32.62) rotate(-61.99)"/><rect class="cls-3" x="23.03" y="41.56" width="3.37" height="1.75" transform="translate(-24.35 44.34) rotate(-62)"/><rect class="cls-3" x="21.04" y="35.41" width="3.38" height="1.75" transform="translate(-19.98 39.31) rotate(-61.99)"/><rect class="cls-3" x="35.92" y="42.45" width="3.38" height="1.75" transform="translate(-18.3 56.18) rotate(-61.99)"/><rect class="cls-3" x="28.91" y="37.36" width="3.38" height="1.75" transform="translate(-17.53 47.3) rotate(-62)"/><rect class="cls-3" x="34.98" y="36.49" width="3.38" height="1.75" transform="translate(-13.54 52.19) rotate(-62)"/><rect class="cls-3" x="16.99" y="41.43" width="3.38" height="1.75" transform="translate(-27.44 38.94) rotate(-62.01)"/></g></g></g></g></svg>