<svg xmlns="http://www.w3.org/2000/svg" viewBox="0 0 56 56"><defs><style>.cls-1{fill:#1d2031;opacity:0;}.cls-2{fill:#fff;}</style></defs><title>Flurry, Snow, Snow Shower Icon Group</title><g id="Camada_2" data-name="Camada 2"><g id="Camada_1-2" data-name="Camada 1"><g id="Flurry_Snow_Snow_Shower_Icon_Group" data-name="Flurry, Snow, Snow Shower Icon Group"><rect id="Weather_Icon_Frame" data-name="Weather Icon Frame" class="cls-1" width="56" height="56"/><polygon id="Flurry_Snow_Snow_Shower_Icon" data-name="Flurry, Snow, Snow Shower Icon" class="cls-2" points="40.3 31.29 39.3 29.55 36.01 31.46 30.02 28 36.01 24.54 39.3 26.44 40.3 24.71 38.01 23.39 41.5 21.37 40.5 19.63 37.01 21.65 37.01 19 35 19 35 22.81 29 26.27 29 19.35 32.31 17.44 31.3 15.7 29 17.03 29 13 27 13 27 17.03 24.71 15.71 23.71 17.44 27 19.34 27 26.26 21.01 22.8 21.01 19 19.01 19 19.01 21.64 15.52 19.63 14.52 21.36 18.01 23.38 15.72 24.7 16.72 26.44 20.02 24.54 26.01 28 20.02 31.46 16.72 29.56 15.71 31.29 18.01 32.62 14.52 34.63 15.52 36.37 19.01 34.36 19.01 37 21.01 37 21.01 33.2 27 29.74 27 36.66 23.71 38.55 24.72 40.29 27 38.97 27 43 29 43 29 38.97 31.3 40.29 32.3 38.56 29 36.65 29 29.73 35 33.19 35 37 37.01 37 37.01 34.35 40.5 36.37 41.5 34.63 38.01 32.62 40.3 31.29"/></g></g></g></svg>