<svg xmlns="http://www.w3.org/2000/svg" viewBox="0 0 56 56"><defs><style>.cls-1{fill:#1d2031;opacity:0;}.cls-2{fill:#fff;opacity:0.8;}.cls-3{fill:#84c6f7;}</style></defs><title>Heavy Rain Icon Group</title><g id="Camada_2" data-name="Camada 2"><g id="Camada_1-2" data-name="Camada 1"><g id="Heavy_Rain_Icon_Group" data-name="Heavy Rain Icon Group"><rect id="Weather_Icon_Frame" data-name="Weather Icon Frame" class="cls-1" width="56" height="56"/><g id="Heavy_Rain_Icon" data-name="Heavy Rain Icon"><path class="cls-2" d="M36,17a8.85,8.85,0,0,0-.89.05A9.75,9.75,0,0,0,16,19.75a9.53,9.53,0,0,0,.1,1.32A6,6,0,0,0,17,33H36a8,8,0,0,0,0-16Z"/><rect class="cls-3" x="12" y="37.39" width="6.88" height="1.75" transform="translate(-24.59 28.27) rotate(-54)"/><rect class="cls-3" x="33.03" y="37.37" width="6.88" height="1.75" transform="translate(-15.91 45.27) rotate(-54)"/><rect class="cls-3" x="14.58" y="38.8" width="10.5" height="1.75" transform="translate(-23.93 32.39) rotate(-54)"/><rect class="cls-3" x="21.17" y="38.41" width="9" height="1.75" transform="translate(-21.2 36.96) rotate(-54)"/><rect class="cls-3" x="25.28" y="38.79" width="10.75" height="1.75" transform="translate(-19.45 41.15) rotate(-54)"/></g></g></g></g></svg>