<svg xmlns="http://www.w3.org/2000/svg" viewBox="0 0 56 56"><defs><style>.cls-1{fill:#1d2031;opacity:0;}.cls-2,.cls-3{fill:#fff;}.cls-3{opacity:0.8;}.cls-4{fill:#84c6f7;}</style></defs><title>Mix Rainfall Icon Group</title><g id="Camada_2" data-name="Camada 2"><g id="Camada_1-2" data-name="Camada 1"><g id="Mix_Rainfall_Icon_Group" data-name="Mix Rainfall Icon Group"><rect id="Weather_Icon_Frame" data-name="Weather Icon Frame" class="cls-1" width="56" height="56"/><g id="Mix_Rainfall_Icon" data-name="Mix Rainfall Icon"><polygon class="cls-2" points="24 22 31 22 29.5 28 33 28 24.25 43 25 33 21.5 33 24 22"/><path class="cls-3" d="M36,17a8.85,8.85,0,0,0-.89.05A9.75,9.75,0,0,0,16,19.75a9.53,9.53,0,0,0,.1,1.32A6,6,0,0,0,17,33h2.45l.1-.44,2.5-11L22.4,20H33.56l-.62,2.49L32.06,26h4.42l-1.75,3L32.4,33H36a8,8,0,0,0,0-16Z"/><rect class="cls-4" x="12.14" y="36.76" width="5.5" height="1.75" transform="translate(-24.31 27.56) rotate(-54)"/><rect class="cls-4" x="16.28" y="40.72" width="6" height="1.75" transform="translate(-25.7 32.73) rotate(-53.99)"/><rect class="cls-4" x="27.43" y="39.25" width="9.62" height="1.75" transform="translate(-19.17 42.61) rotate(-53.98)"/><rect class="cls-4" x="35.46" y="39.33" width="5.5" height="1.75" transform="translate(-16.78 47.48) rotate(-54)"/></g></g></g></g></svg>