<svg xmlns="http://www.w3.org/2000/svg" viewBox="0 0 56 56"><defs><style>.cls-1{fill:#1d2031;opacity:0;}.cls-2{fill:#fff;opacity:0.8;}.cls-3{fill:#f3dc34;}</style></defs><title>Partly Cloudy Icon Group</title><g id="Camada_2" data-name="Camada 2"><g id="Camada_1-2" data-name="Camada 1"><g id="Partly_Cloudy_Icon_Group" data-name="Partly Cloudy Icon Group"><rect id="Weather_Icon_Frame" data-name="Weather Icon Frame" class="cls-1" width="56" height="56"/><g id="Partly_Cloudy_Icon" data-name="Partly Cloudy Icon"><path class="cls-2" d="M48,36.5A7.5,7.5,0,0,0,40.5,29l-.44,0A8.75,8.75,0,0,0,23,31.75c0,.11,0,.22,0,.34A6,6,0,0,0,24,44H41v0A7.48,7.48,0,0,0,48,36.5Z"/><rect class="cls-3" x="21" y="12" width="2" height="5"/><rect class="cls-3" x="8.5" y="24.5" width="2" height="5" transform="translate(-17.5 36.5) rotate(-90)"/><rect class="cls-3" x="12.16" y="15.66" width="2" height="5" transform="translate(-8.99 14.63) rotate(-45)"/><rect class="cls-3" x="12.16" y="33.34" width="2" height="5" transform="translate(-2.87 70.49) rotate(-135)"/><rect class="cls-3" x="29.84" y="15.66" width="2" height="5" transform="translate(39.8 52.81) rotate(-135)"/><path class="cls-3" d="M18,32.73a8,8,0,0,1,3.08-2.17A10.78,10.78,0,0,1,27,22.11a7,7,0,1,0-9,10.62Z"/></g></g></g></g></svg>