<svg xmlns="http://www.w3.org/2000/svg" viewBox="0 0 56 56"><defs><style>.cls-1{fill:#1d2031;opacity:0;}.cls-2,.cls-3{fill:#fff;}.cls-3{opacity:0.5;}</style></defs><title>Partly Cloudy Night Icon Group</title><g id="Camada_2" data-name="Camada 2"><g id="Camada_1-2" data-name="Camada 1"><g id="Partly_Cloudy_Night_Icon_Group" data-name="Partly Cloudy Night Icon Group"><rect id="Weather_Icon_Frame" data-name="Weather Icon Frame" class="cls-1" width="56" height="56"/><g id="Partly_Cloudy_Night_Icon" data-name="Partly Cloudy Night Icon"><path class="cls-2" d="M15.5,21l-.59-1.38a1,1,0,0,0-.53-.53L13,18.5l1.38-.59a1,1,0,0,0,.53-.53L15.5,16l.59,1.38a1,1,0,0,0,.53.53L18,18.5l-1.38.59a1,1,0,0,0-.53.53Z"/><path class="cls-2" d="M11.5,28.5,11,27.39a.86.86,0,0,0-.42-.42L9.5,26.5,10.61,26a.86.86,0,0,0,.42-.42l.47-1.11L12,25.61a.86.86,0,0,0,.42.42l1.11.47L12.39,27a.86.86,0,0,0-.42.42Z"/><path class="cls-3" d="M43,35.5A7.5,7.5,0,0,0,35.5,28l-.44,0A8.75,8.75,0,0,0,18,30.75c0,.11,0,.22,0,.34A6,6,0,0,0,19,43H36v0A7.48,7.48,0,0,0,43,35.5Z"/><path class="cls-2" d="M36.41,26a9.55,9.55,0,0,1,6,3,8.49,8.49,0,0,0,4.48-6.43,7.48,7.48,0,0,1-9.51-9.51,8.49,8.49,0,0,0-7.35,7.46A10.69,10.69,0,0,1,36.41,26Z"/></g></g></g></g></svg>