<svg xmlns="http://www.w3.org/2000/svg" viewBox="0 0 56 56"><defs><style>.cls-1{fill:#1d2031;opacity:0;}.cls-2{fill:#fff;opacity:0.5;}.cls-3{fill:#84c6f7;}</style></defs><title>Rain Night Icon Group</title><g id="Camada_2" data-name="Camada 2"><g id="Camada_1-2" data-name="Camada 1"><g id="Rain_Night_Icon_Group" data-name="Rain Night Icon Group"><rect id="Weather_Icon_Frame" data-name="Weather Icon Frame" class="cls-1" width="56" height="56"/><g id="Rain_Night_Icon" data-name="Rain Night Icon"><path class="cls-2" d="M36,17a8.85,8.85,0,0,0-.89.05A9.75,9.75,0,0,0,16,19.75a9.53,9.53,0,0,0,.1,1.32A6,6,0,0,0,17,33H36a8,8,0,0,0,0-16Z"/><rect class="cls-3" x="12" y="37.39" width="6.88" height="1.75" transform="translate(-24.59 28.27) rotate(-54)"/><rect class="cls-3" x="23.01" y="37.84" width="8" height="1.75" transform="translate(-20.19 37.81) rotate(-54)"/><rect class="cls-3" x="28.1" y="38.89" width="10.5" height="1.75" transform="translate(-18.43 43.38) rotate(-54)"/><rect class="cls-3" x="16.02" y="40.27" width="8.25" height="1.75" transform="translate(-24.98 33.25) rotate(-53.99)"/><rect class="cls-3" x="37.11" y="41.02" width="3" height="1.75" transform="translate(-17.97 48.5) rotate(-53.99)"/></g></g></g></g></svg>