<svg xmlns="http://www.w3.org/2000/svg" viewBox="0 0 56 56"><defs><style>.cls-1{fill:#1d2031;opacity:0;}.cls-2{fill:#84c6f7;}.cls-3,.cls-4{fill:#fff;}.cls-3{opacity:0.5;}</style></defs><title>Scattered Showers Night Icon Group</title><g id="Camada_2" data-name="Camada 2"><g id="Camada_1-2" data-name="Camada 1"><g id="Scattered_Showers_Night_Icon_Group" data-name="Scattered Showers Night Icon Group"><rect id="Weather_Icon_Frame" data-name="Weather Icon Frame" class="cls-1" width="56" height="56"/><g id="Scattered_Showers_Night_Icon" data-name="Scattered Showers Night Icon"><rect class="cls-2" x="13.06" y="39.93" width="3.87" height="1.75" transform="translate(-26.83 28.96) rotate(-54.01)"/><rect class="cls-2" x="18.18" y="43.95" width="3.88" height="1.75" transform="translate(-27.98 34.76) rotate(-54.01)"/><rect class="cls-2" x="26.1" y="41.98" width="3.88" height="1.75" transform="translate(-23.12 40.35) rotate(-54.01)"/><rect class="cls-2" x="34.1" y="40.11" width="3.88" height="1.75" transform="translate(-18.3 46.04) rotate(-53.99)"/><path class="cls-3" d="M41,29.5A7.5,7.5,0,0,0,33.5,22l-.44,0A8.75,8.75,0,0,0,16,24.75c0,.11,0,.22,0,.34A6,6,0,0,0,17,37H34v0A7.48,7.48,0,0,0,41,29.5Z"/><path class="cls-4" d="M34.41,20a9.51,9.51,0,0,1,6,3,8.51,8.51,0,0,0,4.5-6.54,7.76,7.76,0,0,1-1.94.26,7.5,7.5,0,0,1-7.5-7.5A7.74,7.74,0,0,1,35.83,7a8.5,8.5,0,0,0-7.77,7.51A10.72,10.72,0,0,1,34.41,20Z"/></g></g></g></g></svg>