<svg xmlns="http://www.w3.org/2000/svg" viewBox="0 0 56 56"><defs><style>.cls-1{fill:#1d2031;opacity:0;}.cls-2{fill:#84c6f7;}.cls-3{fill:#fff;opacity:0.8;}.cls-4{fill:#f3dc34;}</style></defs><title>Scattered Showers Icon Group</title><g id="Camada_2" data-name="Camada 2"><g id="Camada_1-2" data-name="Camada 1"><g id="Scattered_Showers_Icon_Group" data-name="Scattered Showers Icon Group"><rect id="Weather_Icon_Frame" data-name="Weather Icon Frame" class="cls-1" width="56" height="56"/><g id="Scattered_Showers_Icon" data-name="Scattered Showers Icon"><rect class="cls-2" x="19.31" y="41.3" width="3.87" height="1.75" transform="translate(-25.36 34.58) rotate(-54.01)"/><rect class="cls-2" x="24.43" y="45.33" width="3.88" height="1.75" transform="translate(-26.51 40.38) rotate(-54.01)"/><rect class="cls-2" x="32.35" y="43.36" width="3.88" height="1.75" transform="translate(-21.65 45.98) rotate(-54.01)"/><rect class="cls-2" x="40.35" y="41.48" width="3.88" height="1.75" transform="translate(-16.84 51.67) rotate(-53.99)"/><path class="cls-3" d="M48,30.5A7.5,7.5,0,0,0,40.5,23l-.44,0A8.75,8.75,0,0,0,23,25.75c0,.11,0,.22,0,.34A6,6,0,0,0,24,38H41v0A7.48,7.48,0,0,0,48,30.5Z"/><rect class="cls-4" x="22" y="6" width="2" height="5"/><rect class="cls-4" x="9.5" y="18.5" width="2" height="5" transform="translate(-10.5 31.5) rotate(-90)"/><rect class="cls-4" x="13.16" y="9.66" width="2" height="5" transform="translate(-4.45 13.58) rotate(-45)"/><rect class="cls-4" x="13.16" y="27.34" width="2" height="5" transform="translate(3.08 60.95) rotate(-135)"/><rect class="cls-4" x="30.84" y="9.66" width="2" height="5" transform="translate(45.75 43.27) rotate(-135)"/><path class="cls-4" d="M18.42,26.29a7.75,7.75,0,0,1,2.65-1.73,10.75,10.75,0,0,1,6.61-8.75,7,7,0,1,0-9.26,10.48Z"/></g></g></g></g></svg>