<svg xmlns="http://www.w3.org/2000/svg" viewBox="0 0 56 56"><defs><style>.cls-1{fill:#1d2031;opacity:0;}.cls-2,.cls-3{fill:#fff;}.cls-3{opacity:0.8;}.cls-4{fill:#f3dc34;}</style></defs><title>Scattered Thunderstorm Icon Group</title><g id="Camada_2" data-name="Camada 2"><g id="Camada_1-2" data-name="Camada 1"><g id="Scattered_Thunderstorm_Icon_Group" data-name="Scattered Thunderstorm Icon Group"><rect id="Weather_Icon_Frame" data-name="Weather Icon Frame" class="cls-1" width="56" height="56"/><g id="Scattered_Thunderstorm_Icon" data-name="Scattered Thunderstorm Icon"><polygon class="cls-2" points="29.5 29 36.5 29 35 35 38.5 35 29.75 50 30.5 40 27 40 29.5 29"/><path class="cls-3" d="M40.5,24l-.44,0A8.75,8.75,0,0,0,23,26.75c0,.11,0,.22,0,.34A6,6,0,0,0,24,39h1.18L27.9,27H39.06l-1.5,6H42l-3.5,6H41v0a7.49,7.49,0,0,0-.5-15Z"/><rect class="cls-4" x="22" y="7" width="2" height="5"/><rect class="cls-4" x="9.5" y="19.5" width="2" height="5" transform="translate(-11.5 32.5) rotate(-90)"/><rect class="cls-4" x="13.16" y="10.66" width="2" height="5" transform="translate(-5.16 13.87) rotate(-45)"/><rect class="cls-4" x="13.16" y="28.34" width="2" height="5" transform="translate(2.37 62.66) rotate(-135)"/><rect class="cls-4" x="30.84" y="10.66" width="2" height="5" transform="translate(45.05 44.98) rotate(-135)"/><path class="cls-4" d="M18.42,27.29a7.75,7.75,0,0,1,2.65-1.73,10.75,10.75,0,0,1,6.61-8.75,7,7,0,1,0-9.26,10.48Z"/></g></g></g></g></svg>