<svg xmlns="http://www.w3.org/2000/svg" viewBox="0 0 56 56"><defs><style>.cls-1{fill:#1d2031;opacity:0;}.cls-2,.cls-3{fill:#fff;}.cls-3{opacity:0.5;}</style></defs><title>Scattered Thunderstorm Night Icon Group</title><g id="Camada_2" data-name="Camada 2"><g id="Camada_1-2" data-name="Camada 1"><g id="Scattered_Thunderstorm_Night_Icon_Group" data-name="Scattered Thunderstorm Night Icon Group"><rect id="Weather_Icon_Frame" data-name="Weather Icon Frame" class="cls-1" width="56" height="56"/><g id="Scattered_Thunderstorm_Night_Icon" data-name="Scattered Thunderstorm Night Icon"><polygon class="cls-2" points="22.5 28 29.5 28 28 34 31.5 34 22.75 49 23.5 39 20 39 22.5 28"/><path class="cls-3" d="M33.5,23l-.44,0A8.75,8.75,0,0,0,16,25.75c0,.11,0,.22,0,.34A6,6,0,0,0,17,38h1.18L20.9,26H32.06l-1.5,6H35l-3.5,6H34v0a7.49,7.49,0,0,0-.5-15Z"/><path class="cls-2" d="M43.5,19a7.48,7.48,0,0,1-7.09-9.92,8.51,8.51,0,0,0-7.27,6.86A10.63,10.63,0,0,1,34.41,21,9.5,9.5,0,0,1,41.3,25.1a8.51,8.51,0,0,0,4.62-6.51A7.45,7.45,0,0,1,43.5,19Z"/></g></g></g></g></svg>