<svg xmlns="http://www.w3.org/2000/svg" viewBox="0 0 56 56"><defs><style>.cls-1{fill:#1d2031;opacity:0;}.cls-2,.cls-3{fill:#fff;}.cls-3{opacity:0.5;}</style></defs><title>Severe Thunderstorm Night Icon Group</title><g id="Camada_2" data-name="Camada 2"><g id="Camada_1-2" data-name="Camada 1"><g id="Severe_Thunderstorm_Night_Icon_Group" data-name="Severe Thunderstorm Night Icon Group"><rect id="Weather_Icon_Frame" data-name="Weather Icon Frame" class="cls-1" width="56" height="56"/><g id="Severe_Thunderstorm_Night" data-name="Severe Thunderstorm Night"><polygon class="cls-2" points="24 24 31 24 29.5 30 33 30 24.25 45 25 35 21.5 35 24 24"/><path class="cls-3" d="M36,19a8.85,8.85,0,0,0-.89.05A9.75,9.75,0,0,0,16,21.75a9.53,9.53,0,0,0,.1,1.32A6,6,0,0,0,17,35h2.45l.1-.44L22.4,22H33.56l-1.5,6h4.42L32.4,35H36a8,8,0,0,0,0-16Z"/></g></g></g></g></svg>