<svg xmlns="http://www.w3.org/2000/svg" viewBox="0 0 56 56"><defs><style>.cls-1{fill:#1d2031;opacity:0;}.cls-2{fill:#fff;}.cls-3{fill:#f3dc34;}</style></defs><title>Sunrise Icon Group</title><g id="Camada_2" data-name="Camada 2"><g id="Camada_1-2" data-name="Camada 1"><g id="Sunrise_Icon_Group" data-name="Sunrise Icon Group"><rect id="Weather_Icon_Frame" data-name="Weather Icon Frame" class="cls-1" width="56" height="56"/><g id="Sunrise_Icon" data-name="Sunrise Icon"><rect class="cls-2" x="9" y="43" width="38" height="2"/><path class="cls-3" d="M28,36a8,8,0,0,0-7.93,7H35.93A8,8,0,0,0,28,36Z"/><rect class="cls-3" x="27" y="27" width="2" height="6"/><rect class="cls-3" x="17.46" y="31.98" width="2" height="4.97" transform="translate(-18.96 23.15) rotate(-45)"/><polygon class="cls-3" points="38.63 32.01 35.07 35.52 36.48 36.93 40.04 33.41 38.63 32.01"/><polygon class="cls-2" points="33.63 15.83 27.96 10.16 22.35 15.78 23.76 17.2 27 13.96 27 22.07 29 22.07 29 14.03 32.21 17.24 33.63 15.83"/></g></g></g></g></svg>