<svg xmlns="http://www.w3.org/2000/svg" viewBox="0 0 56 56"><defs><style>.cls-1{fill:#1d2031;opacity:0;}.cls-2{fill:#fff;}.cls-3{fill:#f3dc34;}</style></defs><title>Sunset Icon Group</title><g id="Camada_2" data-name="Camada 2"><g id="Camada_1-2" data-name="Camada 1"><g id="Sunset_Icon_Group" data-name="Sunset Icon Group"><rect id="Weather_Icon_Frame" data-name="Weather Icon Frame" class="cls-1" width="56" height="56"/><g id="Sunset_Icon" data-name="Sunset Icon"><rect class="cls-2" x="9" y="43" width="38" height="2"/><path class="cls-3" d="M28,36a8,8,0,0,0-7.93,7H35.93A8,8,0,0,0,28,36Z"/><rect class="cls-3" x="27" y="27" width="2" height="6"/><rect class="cls-3" x="17.46" y="31.98" width="2" height="4.97" transform="translate(-18.96 23.15) rotate(-45)"/><polygon class="cls-3" points="38.63 32.01 35.07 35.52 36.48 36.93 40.04 33.41 38.63 32.01"/><polygon class="cls-2" points="32.21 14.86 29 18.07 29 10 27 10 27 18.04 23.76 14.81 22.35 16.22 28.01 21.89 33.63 16.27 32.21 14.86"/></g></g></g></g></svg>